<svg width="723" height="78" viewBox="0 0 723 78" fill="none" xmlns="http://www.w3.org/2000/svg">
<line x1="5" y1="18.5" x2="722" y2="18.5" stroke="black"/>
<path d="M4.5 33L721.746 32.5" stroke="black"/>
<path d="M5 19L5 32.5" stroke="black"/>
<path d="M722 19V33" stroke="black"/>
<line x1="62" y1="21.5" x2="712" y2="21.5" stroke="black"/>
<line x1="612.25" y1="22" x2="612.25" y2="26" stroke="black" stroke-width="0.5"/>
<line x1="562.25" y1="22" x2="562.25" y2="26" stroke="black" stroke-width="0.5"/>
<line x1="512.25" y1="22" x2="512.25" y2="26" stroke="black" stroke-width="0.5"/>
<line x1="462.25" y1="22" x2="462.25" y2="26" stroke="black" stroke-width="0.5"/>
<line x1="412.25" y1="22" x2="412.25" y2="26" stroke="black" stroke-width="0.5"/>
<line x1="362.25" y1="22" x2="362.25" y2="26" stroke="black" stroke-width="0.5"/>
<line x1="312.25" y1="22" x2="312.25" y2="26" stroke="black" stroke-width="0.5"/>
<line x1="262.25" y1="22" x2="262.25" y2="26" stroke="black" stroke-width="0.5"/>
<line x1="212.25" y1="22" x2="212.25" y2="26" stroke="black" stroke-width="0.5"/>
<line x1="162.25" y1="22" x2="162.25" y2="26" stroke="black" stroke-width="0.5"/>
<line x1="112.25" y1="22" x2="112.25" y2="26" stroke="black" stroke-width="0.5"/>
<line x1="62.25" y1="20" x2="62.25" y2="26" stroke="black" stroke-width="0.5"/>
<line x1="77.15" y1="22" x2="77.15" y2="24" stroke="black" stroke-width="0.3"/>
<line x1="82.15" y1="22" x2="82.15" y2="24" stroke="black" stroke-width="0.3"/>
<line x1="102.15" y1="22" x2="102.15" y2="24" stroke="black" stroke-width="0.3"/>
<line x1="67.15" y1="22" x2="67.15" y2="24" stroke="black" stroke-width="0.3"/>
<line x1="92.15" y1="22" x2="92.15" y2="24" stroke="black" stroke-width="0.3"/>
<line x1="72.15" y1="22" x2="72.15" y2="24" stroke="black" stroke-width="0.3"/>
<line x1="87.15" y1="22" x2="87.15" y2="24" stroke="black" stroke-width="0.3"/>
<line x1="97.15" y1="22" x2="97.15" y2="24" stroke="black" stroke-width="0.3"/>
<line x1="107.15" y1="22" x2="107.15" y2="24" stroke="black" stroke-width="0.3"/>
<line x1="127.15" y1="22" x2="127.15" y2="24" stroke="black" stroke-width="0.3"/>
<line x1="132.15" y1="22" x2="132.15" y2="24" stroke="black" stroke-width="0.3"/>
<line x1="152.15" y1="22" x2="152.15" y2="24" stroke="black" stroke-width="0.3"/>
<line x1="117.15" y1="22" x2="117.15" y2="24" stroke="black" stroke-width="0.3"/>
<line x1="142.15" y1="22" x2="142.15" y2="24" stroke="black" stroke-width="0.3"/>
<line x1="122.15" y1="22" x2="122.15" y2="24" stroke="black" stroke-width="0.3"/>
<line x1="137.15" y1="22" x2="137.15" y2="24" stroke="black" stroke-width="0.3"/>
<line x1="147.15" y1="22" x2="147.15" y2="24" stroke="black" stroke-width="0.3"/>
<line x1="157.15" y1="22" x2="157.15" y2="24" stroke="black" stroke-width="0.3"/>
<line x1="177.15" y1="22" x2="177.15" y2="24" stroke="black" stroke-width="0.3"/>
<line x1="182.15" y1="22" x2="182.15" y2="24" stroke="black" stroke-width="0.3"/>
<line x1="202.15" y1="22" x2="202.15" y2="24" stroke="black" stroke-width="0.3"/>
<line x1="167.15" y1="22" x2="167.15" y2="24" stroke="black" stroke-width="0.3"/>
<line x1="192.15" y1="22" x2="192.15" y2="24" stroke="black" stroke-width="0.3"/>
<line x1="172.15" y1="22" x2="172.15" y2="24" stroke="black" stroke-width="0.3"/>
<line x1="187.15" y1="22" x2="187.15" y2="24" stroke="black" stroke-width="0.3"/>
<line x1="197.15" y1="22" x2="197.15" y2="24" stroke="black" stroke-width="0.3"/>
<line x1="207.15" y1="22" x2="207.15" y2="24" stroke="black" stroke-width="0.3"/>
<line x1="227.15" y1="22" x2="227.15" y2="24" stroke="black" stroke-width="0.3"/>
<line x1="232.15" y1="22" x2="232.15" y2="24" stroke="black" stroke-width="0.3"/>
<line x1="252.15" y1="22" x2="252.15" y2="24" stroke="black" stroke-width="0.3"/>
<line x1="217.15" y1="22" x2="217.15" y2="24" stroke="black" stroke-width="0.3"/>
<line x1="242.15" y1="22" x2="242.15" y2="24" stroke="black" stroke-width="0.3"/>
<line x1="222.15" y1="22" x2="222.15" y2="24" stroke="black" stroke-width="0.3"/>
<line x1="237.15" y1="22" x2="237.15" y2="24" stroke="black" stroke-width="0.3"/>
<line x1="247.15" y1="22" x2="247.15" y2="24" stroke="black" stroke-width="0.3"/>
<line x1="257.15" y1="22" x2="257.15" y2="24" stroke="black" stroke-width="0.3"/>
<line x1="277.15" y1="22" x2="277.15" y2="24" stroke="black" stroke-width="0.3"/>
<line x1="282.15" y1="22" x2="282.15" y2="24" stroke="black" stroke-width="0.3"/>
<line x1="302.15" y1="22" x2="302.15" y2="24" stroke="black" stroke-width="0.3"/>
<line x1="267.15" y1="22" x2="267.15" y2="24" stroke="black" stroke-width="0.3"/>
<line x1="292.15" y1="22" x2="292.15" y2="24" stroke="black" stroke-width="0.3"/>
<line x1="272.15" y1="22" x2="272.15" y2="24" stroke="black" stroke-width="0.3"/>
<line x1="287.15" y1="22" x2="287.15" y2="24" stroke="black" stroke-width="0.3"/>
<line x1="297.15" y1="22" x2="297.15" y2="24" stroke="black" stroke-width="0.3"/>
<line x1="307.15" y1="22" x2="307.15" y2="24" stroke="black" stroke-width="0.3"/>
<line x1="327.15" y1="22" x2="327.15" y2="24" stroke="black" stroke-width="0.3"/>
<line x1="332.15" y1="22" x2="332.15" y2="24" stroke="black" stroke-width="0.3"/>
<line x1="352.15" y1="22" x2="352.15" y2="24" stroke="black" stroke-width="0.3"/>
<line x1="317.15" y1="22" x2="317.15" y2="24" stroke="black" stroke-width="0.3"/>
<line x1="342.15" y1="22" x2="342.15" y2="24" stroke="black" stroke-width="0.3"/>
<line x1="322.15" y1="22" x2="322.15" y2="24" stroke="black" stroke-width="0.3"/>
<line x1="337.15" y1="22" x2="337.15" y2="24" stroke="black" stroke-width="0.3"/>
<line x1="347.15" y1="22" x2="347.15" y2="24" stroke="black" stroke-width="0.3"/>
<line x1="357.15" y1="22" x2="357.15" y2="24" stroke="black" stroke-width="0.3"/>
<line x1="377.15" y1="22" x2="377.15" y2="24" stroke="black" stroke-width="0.3"/>
<line x1="382.15" y1="22" x2="382.15" y2="24" stroke="black" stroke-width="0.3"/>
<line x1="402.15" y1="22" x2="402.15" y2="24" stroke="black" stroke-width="0.3"/>
<line x1="367.15" y1="22" x2="367.15" y2="24" stroke="black" stroke-width="0.3"/>
<line x1="392.15" y1="22" x2="392.15" y2="24" stroke="black" stroke-width="0.3"/>
<line x1="372.15" y1="22" x2="372.15" y2="24" stroke="black" stroke-width="0.3"/>
<line x1="387.15" y1="22" x2="387.15" y2="24" stroke="black" stroke-width="0.3"/>
<line x1="397.15" y1="22" x2="397.15" y2="24" stroke="black" stroke-width="0.3"/>
<line x1="407.15" y1="22" x2="407.15" y2="24" stroke="black" stroke-width="0.3"/>
<line x1="427.15" y1="22" x2="427.15" y2="24" stroke="black" stroke-width="0.3"/>
<line x1="432.15" y1="22" x2="432.15" y2="24" stroke="black" stroke-width="0.3"/>
<line x1="452.15" y1="22" x2="452.15" y2="24" stroke="black" stroke-width="0.3"/>
<line x1="417.15" y1="22" x2="417.15" y2="24" stroke="black" stroke-width="0.3"/>
<line x1="442.15" y1="22" x2="442.15" y2="24" stroke="black" stroke-width="0.3"/>
<line x1="422.15" y1="22" x2="422.15" y2="24" stroke="black" stroke-width="0.3"/>
<line x1="437.15" y1="22" x2="437.15" y2="24" stroke="black" stroke-width="0.3"/>
<line x1="447.15" y1="22" x2="447.15" y2="24" stroke="black" stroke-width="0.3"/>
<line x1="457.15" y1="22" x2="457.15" y2="24" stroke="black" stroke-width="0.3"/>
<line x1="477.15" y1="22" x2="477.15" y2="24" stroke="black" stroke-width="0.3"/>
<line x1="482.15" y1="22" x2="482.15" y2="24" stroke="black" stroke-width="0.3"/>
<line x1="502.15" y1="22" x2="502.15" y2="24" stroke="black" stroke-width="0.3"/>
<line x1="467.15" y1="22" x2="467.15" y2="24" stroke="black" stroke-width="0.3"/>
<line x1="492.15" y1="22" x2="492.15" y2="24" stroke="black" stroke-width="0.3"/>
<line x1="472.15" y1="22" x2="472.15" y2="24" stroke="black" stroke-width="0.3"/>
<line x1="487.15" y1="22" x2="487.15" y2="24" stroke="black" stroke-width="0.3"/>
<line x1="497.15" y1="22" x2="497.15" y2="24" stroke="black" stroke-width="0.3"/>
<line x1="507.15" y1="22" x2="507.15" y2="24" stroke="black" stroke-width="0.3"/>
<line x1="527.15" y1="22" x2="527.15" y2="24" stroke="black" stroke-width="0.3"/>
<line x1="532.15" y1="22" x2="532.15" y2="24" stroke="black" stroke-width="0.3"/>
<line x1="552.15" y1="22" x2="552.15" y2="24" stroke="black" stroke-width="0.3"/>
<line x1="517.15" y1="22" x2="517.15" y2="24" stroke="black" stroke-width="0.3"/>
<line x1="542.15" y1="22" x2="542.15" y2="24" stroke="black" stroke-width="0.3"/>
<line x1="522.15" y1="22" x2="522.15" y2="24" stroke="black" stroke-width="0.3"/>
<line x1="537.15" y1="22" x2="537.15" y2="24" stroke="black" stroke-width="0.3"/>
<line x1="547.15" y1="22" x2="547.15" y2="24" stroke="black" stroke-width="0.3"/>
<line x1="557.15" y1="22" x2="557.15" y2="24" stroke="black" stroke-width="0.3"/>
<line x1="577.15" y1="22" x2="577.15" y2="24" stroke="black" stroke-width="0.3"/>
<line x1="582.15" y1="22" x2="582.15" y2="24" stroke="black" stroke-width="0.3"/>
<line x1="602.15" y1="22" x2="602.15" y2="24" stroke="black" stroke-width="0.3"/>
<line x1="567.15" y1="22" x2="567.15" y2="24" stroke="black" stroke-width="0.3"/>
<line x1="592.15" y1="22" x2="592.15" y2="24" stroke="black" stroke-width="0.3"/>
<line x1="572.15" y1="22" x2="572.15" y2="24" stroke="black" stroke-width="0.3"/>
<line x1="587.15" y1="22" x2="587.15" y2="24" stroke="black" stroke-width="0.3"/>
<line x1="597.15" y1="22" x2="597.15" y2="24" stroke="black" stroke-width="0.3"/>
<line x1="607.15" y1="22" x2="607.15" y2="24" stroke="black" stroke-width="0.3"/>
<line x1="627.15" y1="22" x2="627.15" y2="24" stroke="black" stroke-width="0.3"/>
<line x1="632.15" y1="22" x2="632.15" y2="24" stroke="black" stroke-width="0.3"/>
<line x1="652.15" y1="22" x2="652.15" y2="24" stroke="black" stroke-width="0.3"/>
<line x1="617.15" y1="22" x2="617.15" y2="24" stroke="black" stroke-width="0.3"/>
<line x1="642.15" y1="22" x2="642.15" y2="24" stroke="black" stroke-width="0.3"/>
<line x1="622.15" y1="22" x2="622.15" y2="24" stroke="black" stroke-width="0.3"/>
<line x1="637.15" y1="22" x2="637.15" y2="24" stroke="black" stroke-width="0.3"/>
<line x1="647.15" y1="22" x2="647.15" y2="24" stroke="black" stroke-width="0.3"/>
<line x1="657.15" y1="22" x2="657.15" y2="24" stroke="black" stroke-width="0.3"/>
<line x1="677.15" y1="22" x2="677.15" y2="24" stroke="black" stroke-width="0.3"/>
<line x1="682.15" y1="22" x2="682.15" y2="24" stroke="black" stroke-width="0.3"/>
<line x1="702.15" y1="22" x2="702.15" y2="24" stroke="black" stroke-width="0.3"/>
<line x1="667.15" y1="22" x2="667.15" y2="24" stroke="black" stroke-width="0.3"/>
<line x1="692.15" y1="22" x2="692.15" y2="24" stroke="black" stroke-width="0.3"/>
<line x1="672.15" y1="22" x2="672.15" y2="24" stroke="black" stroke-width="0.3"/>
<line x1="687.15" y1="22" x2="687.15" y2="24" stroke="black" stroke-width="0.3"/>
<line x1="697.15" y1="22" x2="697.15" y2="24" stroke="black" stroke-width="0.3"/>
<line x1="707.15" y1="22" x2="706.15" y2="24" stroke="black" stroke-width="0.3"/>
<path d="M662.25 22V26" stroke="black" stroke-width="0.5"/>
<path d="M712 20V26" stroke="black" stroke-width="0.5"/>
<path d="M62.25 30.0398C62.036 30.0398 61.8537 29.9815 61.7031 29.8651C61.5526 29.7476 61.4375 29.5777 61.358 29.3551C61.2784 29.1316 61.2386 28.8617 61.2386 28.5455C61.2386 28.2311 61.2784 27.9626 61.358 27.7401C61.4384 27.5166 61.554 27.3461 61.7045 27.2287C61.8561 27.1103 62.0379 27.0511 62.25 27.0511C62.4621 27.0511 62.6435 27.1103 62.794 27.2287C62.9455 27.3461 63.0611 27.5166 63.1406 27.7401C63.2211 27.9626 63.2614 28.2311 63.2614 28.5455C63.2614 28.8617 63.2216 29.1316 63.142 29.3551C63.0625 29.5777 62.9474 29.7476 62.7969 29.8651C62.6463 29.9815 62.464 30.0398 62.25 30.0398ZM62.25 29.7273C62.4621 29.7273 62.6269 29.625 62.7443 29.4205C62.8617 29.2159 62.9205 28.9242 62.9205 28.5455C62.9205 28.2936 62.8935 28.0791 62.8395 27.902C62.7865 27.7249 62.7098 27.59 62.6094 27.4972C62.5099 27.4044 62.3902 27.358 62.25 27.358C62.0398 27.358 61.8755 27.4616 61.7571 27.669C61.6387 27.8755 61.5795 28.1676 61.5795 28.5455C61.5795 28.7973 61.6061 29.0114 61.6591 29.1875C61.7121 29.3636 61.7884 29.4976 61.8878 29.5895C61.9882 29.6813 62.1089 29.7273 62.25 29.7273Z" fill="black"/>
<path d="M111.324 27.0909V30H110.972V27.4602H110.955L110.244 27.9318V27.5739L110.972 27.0909H111.324ZM113.109 30.0398C112.895 30.0398 112.713 29.9815 112.562 29.8651C112.412 29.7476 112.297 29.5777 112.217 29.3551C112.138 29.1316 112.098 28.8617 112.098 28.5455C112.098 28.2311 112.138 27.9626 112.217 27.7401C112.298 27.5166 112.413 27.3461 112.564 27.2287C112.715 27.1103 112.897 27.0511 113.109 27.0511C113.321 27.0511 113.503 27.1103 113.653 27.2287C113.805 27.3461 113.92 27.5166 114 27.7401C114.08 27.9626 114.121 28.2311 114.121 28.5455C114.121 28.8617 114.081 29.1316 114.001 29.3551C113.922 29.5777 113.807 29.7476 113.656 29.8651C113.506 29.9815 113.323 30.0398 113.109 30.0398ZM113.109 29.7273C113.321 29.7273 113.486 29.625 113.604 29.4205C113.721 29.2159 113.78 28.9242 113.78 28.5455C113.78 28.2936 113.753 28.0791 113.699 27.902C113.646 27.7249 113.569 27.59 113.469 27.4972C113.369 27.4044 113.25 27.358 113.109 27.358C112.899 27.358 112.735 27.4616 112.616 27.669C112.498 27.8755 112.439 28.1676 112.439 28.5455C112.439 28.7973 112.465 29.0114 112.518 29.1875C112.571 29.3636 112.648 29.4976 112.747 29.5895C112.848 29.6813 112.968 29.7273 113.109 29.7273Z" fill="black"/>
<path d="M160.301 30V29.7443L161.261 28.6932C161.374 28.5701 161.467 28.4631 161.54 28.3722C161.613 28.2803 161.667 28.1941 161.702 28.1136C161.738 28.0322 161.756 27.947 161.756 27.858C161.756 27.7557 161.731 27.6671 161.682 27.5923C161.634 27.5175 161.567 27.4598 161.483 27.419C161.399 27.3783 161.304 27.358 161.199 27.358C161.087 27.358 160.99 27.3812 160.906 27.4276C160.824 27.473 160.76 27.5369 160.714 27.6193C160.67 27.7017 160.648 27.7983 160.648 27.9091H160.312C160.312 27.7386 160.352 27.589 160.43 27.4602C160.509 27.3314 160.616 27.2311 160.751 27.1591C160.888 27.0871 161.041 27.0511 161.21 27.0511C161.381 27.0511 161.532 27.0871 161.663 27.1591C161.795 27.2311 161.898 27.3281 161.973 27.4503C162.048 27.5724 162.085 27.7083 162.085 27.858C162.085 27.965 162.066 28.0696 162.027 28.1719C161.989 28.2732 161.923 28.3864 161.828 28.5114C161.734 28.6354 161.604 28.7869 161.438 28.9659L160.784 29.6648V29.6875H162.136V30H160.301ZM163.672 30.0398C163.458 30.0398 163.276 29.9815 163.125 29.8651C162.974 29.7476 162.859 29.5777 162.78 29.3551C162.7 29.1316 162.661 28.8617 162.661 28.5455C162.661 28.2311 162.7 27.9626 162.78 27.7401C162.86 27.5166 162.976 27.3461 163.126 27.2287C163.278 27.1103 163.46 27.0511 163.672 27.0511C163.884 27.0511 164.065 27.1103 164.216 27.2287C164.367 27.3461 164.483 27.5166 164.562 27.7401C164.643 27.9626 164.683 28.2311 164.683 28.5455C164.683 28.8617 164.643 29.1316 164.564 29.3551C164.484 29.5777 164.369 29.7476 164.219 29.8651C164.068 29.9815 163.886 30.0398 163.672 30.0398ZM163.672 29.7273C163.884 29.7273 164.049 29.625 164.166 29.4205C164.284 29.2159 164.342 28.9242 164.342 28.5455C164.342 28.2936 164.315 28.0791 164.261 27.902C164.208 27.7249 164.132 27.59 164.031 27.4972C163.932 27.4044 163.812 27.358 163.672 27.358C163.462 27.358 163.297 27.4616 163.179 27.669C163.061 27.8755 163.001 28.1676 163.001 28.5455C163.001 28.7973 163.028 29.0114 163.081 29.1875C163.134 29.3636 163.21 29.4976 163.31 29.5895C163.41 29.6813 163.531 29.7273 163.672 29.7273Z" fill="black"/>
<path d="M211.284 30.0398C211.097 30.0398 210.929 30.0076 210.783 29.9432C210.637 29.8788 210.521 29.7893 210.435 29.6747C210.349 29.5592 210.303 29.4252 210.295 29.2727H210.653C210.661 29.3665 210.693 29.4474 210.75 29.5156C210.807 29.5829 210.881 29.6349 210.973 29.6719C211.065 29.7088 211.167 29.7273 211.278 29.7273C211.403 29.7273 211.514 29.7055 211.611 29.6619C211.707 29.6184 211.783 29.5578 211.838 29.4801C211.893 29.4025 211.92 29.3125 211.92 29.2102C211.92 29.1032 211.894 29.009 211.841 28.9276C211.788 28.8452 211.71 28.7808 211.608 28.7344C211.506 28.688 211.381 28.6648 211.233 28.6648H211V28.3523H211.233C211.348 28.3523 211.45 28.3314 211.537 28.2898C211.625 28.2481 211.694 28.1894 211.743 28.1136C211.793 28.0379 211.818 27.9489 211.818 27.8466C211.818 27.7481 211.796 27.6624 211.753 27.5895C211.709 27.5166 211.648 27.4598 211.568 27.419C211.49 27.3783 211.397 27.358 211.29 27.358C211.189 27.358 211.095 27.3764 211.006 27.4134C210.918 27.4493 210.846 27.5019 210.79 27.571C210.734 27.6392 210.704 27.7216 210.699 27.8182H210.358C210.364 27.6657 210.41 27.5322 210.496 27.4176C210.582 27.3021 210.695 27.2121 210.834 27.1477C210.974 27.0833 211.128 27.0511 211.295 27.0511C211.475 27.0511 211.63 27.0876 211.759 27.1605C211.887 27.2325 211.986 27.3277 212.055 27.446C212.125 27.5644 212.159 27.6922 212.159 27.8295C212.159 27.9934 212.116 28.133 212.03 28.2486C211.945 28.3641 211.829 28.4441 211.682 28.4886V28.5114C211.866 28.5417 212.009 28.6198 212.112 28.7457C212.215 28.8707 212.267 29.0256 212.267 29.2102C212.267 29.3684 212.224 29.5104 212.138 29.6364C212.053 29.7614 211.936 29.8598 211.788 29.9318C211.641 30.0038 211.473 30.0398 211.284 30.0398ZM213.797 30.0398C213.583 30.0398 213.401 29.9815 213.25 29.8651C213.099 29.7476 212.984 29.5777 212.905 29.3551C212.825 29.1316 212.786 28.8617 212.786 28.5455C212.786 28.2311 212.825 27.9626 212.905 27.7401C212.985 27.5166 213.101 27.3461 213.251 27.2287C213.403 27.1103 213.585 27.0511 213.797 27.0511C214.009 27.0511 214.19 27.1103 214.341 27.2287C214.492 27.3461 214.608 27.5166 214.688 27.7401C214.768 27.9626 214.808 28.2311 214.808 28.5455C214.808 28.8617 214.768 29.1316 214.689 29.3551C214.609 29.5777 214.494 29.7476 214.344 29.8651C214.193 29.9815 214.011 30.0398 213.797 30.0398ZM213.797 29.7273C214.009 29.7273 214.174 29.625 214.291 29.4205C214.409 29.2159 214.467 28.9242 214.467 28.5455C214.467 28.2936 214.44 28.0791 214.386 27.902C214.333 27.7249 214.257 27.59 214.156 27.4972C214.057 27.4044 213.937 27.358 213.797 27.358C213.587 27.358 213.422 27.4616 213.304 27.669C213.186 27.8755 213.126 28.1676 213.126 28.5455C213.126 28.7973 213.153 29.0114 213.206 29.1875C213.259 29.3636 213.335 29.4976 213.435 29.5895C213.535 29.6813 213.656 29.7273 213.797 29.7273Z" fill="black"/>
<path d="M311.21 30.0398C311.044 30.0398 310.893 30.0066 310.76 29.9403C310.626 29.8741 310.519 29.7831 310.439 29.6676C310.358 29.5521 310.314 29.4205 310.307 29.2727H310.648C310.661 29.4044 310.721 29.5133 310.827 29.5994C310.934 29.6847 311.062 29.7273 311.21 29.7273C311.33 29.7273 311.436 29.6993 311.528 29.6435C311.622 29.5876 311.696 29.5109 311.749 29.4134C311.803 29.3149 311.83 29.2036 311.83 29.0795C311.83 28.9527 311.802 28.8395 311.746 28.7401C311.691 28.6397 311.615 28.5606 311.518 28.5028C311.422 28.4451 311.312 28.4157 311.188 28.4148C311.098 28.4138 311.007 28.4276 310.913 28.456C310.82 28.4834 310.742 28.5189 310.682 28.5625L310.352 28.5227L310.528 27.0909H312.04V27.4034H310.824L310.722 28.2614H310.739C310.798 28.214 310.873 28.1747 310.963 28.1435C311.053 28.1122 311.147 28.0966 311.244 28.0966C311.422 28.0966 311.581 28.1392 311.72 28.2244C311.86 28.3087 311.97 28.4242 312.05 28.571C312.13 28.7178 312.17 28.8854 312.17 29.0739C312.17 29.2595 312.129 29.4252 312.045 29.571C311.963 29.7159 311.849 29.8305 311.705 29.9148C311.56 29.9981 311.395 30.0398 311.21 30.0398ZM313.684 30.0398C313.47 30.0398 313.287 29.9815 313.137 29.8651C312.986 29.7476 312.871 29.5777 312.792 29.3551C312.712 29.1316 312.672 28.8617 312.672 28.5455C312.672 28.2311 312.712 27.9626 312.792 27.7401C312.872 27.5166 312.988 27.3461 313.138 27.2287C313.29 27.1103 313.471 27.0511 313.684 27.0511C313.896 27.0511 314.077 27.1103 314.228 27.2287C314.379 27.3461 314.495 27.5166 314.574 27.7401C314.655 27.9626 314.695 28.2311 314.695 28.5455C314.695 28.8617 314.655 29.1316 314.576 29.3551C314.496 29.5777 314.381 29.7476 314.23 29.8651C314.08 29.9815 313.898 30.0398 313.684 30.0398ZM313.684 29.7273C313.896 29.7273 314.06 29.625 314.178 29.4205C314.295 29.2159 314.354 28.9242 314.354 28.5455C314.354 28.2936 314.327 28.0791 314.273 27.902C314.22 27.7249 314.143 27.59 314.043 27.4972C313.944 27.4044 313.824 27.358 313.684 27.358C313.473 27.358 313.309 27.4616 313.191 27.669C313.072 27.8755 313.013 28.1676 313.013 28.5455C313.013 28.7973 313.04 29.0114 313.093 29.1875C313.146 29.3636 313.222 29.4976 313.321 29.5895C313.422 29.6813 313.542 29.7273 313.684 29.7273Z" fill="black"/>
<path d="M361.267 30.0398C361.148 30.0379 361.028 30.0152 360.909 29.9716C360.79 29.928 360.681 29.8546 360.582 29.7514C360.484 29.6473 360.405 29.5066 360.345 29.3295C360.286 29.1515 360.256 28.928 360.256 28.6591C360.256 28.4015 360.28 28.1733 360.328 27.9744C360.376 27.7746 360.446 27.6065 360.538 27.4702C360.63 27.3329 360.741 27.2287 360.871 27.1577C361.001 27.0866 361.149 27.0511 361.312 27.0511C361.475 27.0511 361.62 27.0838 361.747 27.1491C361.875 27.2135 361.979 27.3035 362.06 27.419C362.14 27.5346 362.192 27.6676 362.216 27.8182H361.869C361.837 27.6875 361.775 27.5791 361.682 27.4929C361.589 27.4067 361.466 27.3636 361.312 27.3636C361.087 27.3636 360.91 27.4616 360.78 27.6577C360.651 27.8537 360.586 28.1288 360.585 28.483H360.608C360.661 28.4025 360.724 28.3338 360.797 28.277C360.871 28.2192 360.952 28.1747 361.041 28.1435C361.13 28.1122 361.224 28.0966 361.324 28.0966C361.491 28.0966 361.643 28.1383 361.781 28.2216C361.92 28.304 362.03 28.4181 362.114 28.5639C362.197 28.7088 362.239 28.875 362.239 29.0625C362.239 29.2424 362.198 29.4072 362.118 29.5568C362.037 29.7055 361.924 29.8239 361.778 29.9119C361.634 29.9991 361.463 30.0417 361.267 30.0398ZM361.267 29.7273C361.386 29.7273 361.493 29.6974 361.588 29.6378C361.684 29.5781 361.759 29.4981 361.814 29.3977C361.87 29.2973 361.898 29.1856 361.898 29.0625C361.898 28.9422 361.871 28.8329 361.817 28.7344C361.764 28.6349 361.69 28.5559 361.597 28.4972C361.504 28.4384 361.398 28.4091 361.278 28.4091C361.188 28.4091 361.105 28.4271 361.027 28.4631C360.949 28.4981 360.881 28.5464 360.822 28.608C360.765 28.6695 360.719 28.7401 360.686 28.8196C360.653 28.8982 360.636 28.9811 360.636 29.0682C360.636 29.1837 360.663 29.2917 360.717 29.392C360.772 29.4924 360.847 29.5734 360.942 29.6349C361.037 29.6965 361.146 29.7273 361.267 29.7273ZM363.746 30.0398C363.532 30.0398 363.35 29.9815 363.199 29.8651C363.049 29.7476 362.934 29.5777 362.854 29.3551C362.775 29.1316 362.735 28.8617 362.735 28.5455C362.735 28.2311 362.775 27.9626 362.854 27.7401C362.935 27.5166 363.05 27.3461 363.201 27.2287C363.352 27.1103 363.534 27.0511 363.746 27.0511C363.958 27.0511 364.14 27.1103 364.29 27.2287C364.442 27.3461 364.557 27.5166 364.637 27.7401C364.717 27.9626 364.757 28.2311 364.757 28.5455C364.757 28.8617 364.718 29.1316 364.638 29.3551C364.559 29.5777 364.444 29.7476 364.293 29.8651C364.142 29.9815 363.96 30.0398 363.746 30.0398ZM363.746 29.7273C363.958 29.7273 364.123 29.625 364.24 29.4205C364.358 29.2159 364.417 28.9242 364.417 28.5455C364.417 28.2936 364.39 28.0791 364.336 27.902C364.283 27.7249 364.206 27.59 364.105 27.4972C364.006 27.4044 363.886 27.358 363.746 27.358C363.536 27.358 363.372 27.4616 363.253 27.669C363.135 27.8755 363.076 28.1676 363.076 28.5455C363.076 28.7973 363.102 29.0114 363.155 29.1875C363.208 29.3636 363.284 29.4976 363.384 29.5895C363.484 29.6813 363.605 29.7273 363.746 29.7273Z" fill="black"/>
<path d="M410.392 30L411.693 27.4261V27.4034H410.193V27.0909H412.057V27.4205L410.761 30H410.392ZM413.473 30.0398C413.259 30.0398 413.076 29.9815 412.926 29.8651C412.775 29.7476 412.66 29.5777 412.581 29.3551C412.501 29.1316 412.461 28.8617 412.461 28.5455C412.461 28.2311 412.501 27.9626 412.581 27.7401C412.661 27.5166 412.777 27.3461 412.927 27.2287C413.079 27.1103 413.261 27.0511 413.473 27.0511C413.685 27.0511 413.866 27.1103 414.017 27.2287C414.168 27.3461 414.284 27.5166 414.363 27.7401C414.444 27.9626 414.484 28.2311 414.484 28.5455C414.484 28.8617 414.444 29.1316 414.365 29.3551C414.285 29.5777 414.17 29.7476 414.02 29.8651C413.869 29.9815 413.687 30.0398 413.473 30.0398ZM413.473 29.7273C413.685 29.7273 413.85 29.625 413.967 29.4205C414.084 29.2159 414.143 28.9242 414.143 28.5455C414.143 28.2936 414.116 28.0791 414.062 27.902C414.009 27.7249 413.932 27.59 413.832 27.4972C413.733 27.4044 413.613 27.358 413.473 27.358C413.262 27.358 413.098 27.4616 412.98 27.669C412.861 27.8755 412.802 28.1676 412.802 28.5455C412.802 28.7973 412.829 29.0114 412.882 29.1875C412.935 29.3636 413.011 29.4976 413.11 29.5895C413.211 29.6813 413.332 29.7273 413.473 29.7273Z" fill="black"/>
<path d="M461.233 30.0398C461.038 30.0398 460.866 30.0052 460.716 29.9361C460.567 29.866 460.451 29.7699 460.368 29.6477C460.285 29.5246 460.243 29.3845 460.244 29.2273C460.243 29.1042 460.268 28.9905 460.317 28.8864C460.366 28.7812 460.433 28.6937 460.518 28.6236C460.605 28.5526 460.701 28.5076 460.807 28.4886V28.4716C460.668 28.4356 460.557 28.3575 460.474 28.2372C460.392 28.116 460.351 27.9782 460.352 27.8239C460.351 27.6761 460.389 27.544 460.464 27.4276C460.54 27.3111 460.644 27.2192 460.777 27.152C460.911 27.0848 461.063 27.0511 461.233 27.0511C461.402 27.0511 461.552 27.0848 461.685 27.152C461.817 27.2192 461.921 27.3111 461.997 27.4276C462.074 27.544 462.113 27.6761 462.114 27.8239C462.113 27.9782 462.071 28.116 461.987 28.2372C461.905 28.3575 461.795 28.4356 461.659 28.4716V28.4886C461.764 28.5076 461.859 28.5526 461.943 28.6236C462.027 28.6937 462.095 28.7812 462.145 28.8864C462.195 28.9905 462.221 29.1042 462.222 29.2273C462.221 29.3845 462.178 29.5246 462.094 29.6477C462.01 29.7699 461.894 29.866 461.746 29.9361C461.598 30.0052 461.427 30.0398 461.233 30.0398ZM461.233 29.7273C461.365 29.7273 461.478 29.706 461.574 29.6634C461.67 29.6207 461.743 29.5606 461.795 29.483C461.848 29.4053 461.874 29.3144 461.875 29.2102C461.874 29.1004 461.846 29.0033 461.79 28.919C461.734 28.8348 461.658 28.7685 461.561 28.7202C461.465 28.6719 461.356 28.6477 461.233 28.6477C461.109 28.6477 460.998 28.6719 460.901 28.7202C460.804 28.7685 460.728 28.8348 460.672 28.919C460.617 29.0033 460.59 29.1004 460.591 29.2102C460.59 29.3144 460.615 29.4053 460.666 29.483C460.718 29.5606 460.793 29.6207 460.889 29.6634C460.986 29.706 461.1 29.7273 461.233 29.7273ZM461.233 28.3466C461.337 28.3466 461.429 28.3258 461.51 28.2841C461.591 28.2424 461.655 28.1842 461.702 28.1094C461.748 28.0346 461.772 27.947 461.773 27.8466C461.772 27.7481 461.749 27.6624 461.703 27.5895C461.658 27.5156 461.595 27.4588 461.514 27.419C461.434 27.3783 461.34 27.358 461.233 27.358C461.124 27.358 461.029 27.3783 460.947 27.419C460.866 27.4588 460.803 27.5156 460.759 27.5895C460.714 27.6624 460.692 27.7481 460.693 27.8466C460.692 27.947 460.714 28.0346 460.76 28.1094C460.806 28.1842 460.87 28.2424 460.952 28.2841C461.033 28.3258 461.127 28.3466 461.233 28.3466ZM463.715 30.0398C463.501 30.0398 463.319 29.9815 463.168 29.8651C463.017 29.7476 462.902 29.5777 462.823 29.3551C462.743 29.1316 462.703 28.8617 462.703 28.5455C462.703 28.2311 462.743 27.9626 462.823 27.7401C462.903 27.5166 463.019 27.3461 463.169 27.2287C463.321 27.1103 463.503 27.0511 463.715 27.0511C463.927 27.0511 464.108 27.1103 464.259 27.2287C464.41 27.3461 464.526 27.5166 464.605 27.7401C464.686 27.9626 464.726 28.2311 464.726 28.5455C464.726 28.8617 464.686 29.1316 464.607 29.3551C464.527 29.5777 464.412 29.7476 464.262 29.8651C464.111 29.9815 463.929 30.0398 463.715 30.0398ZM463.715 29.7273C463.927 29.7273 464.092 29.625 464.209 29.4205C464.327 29.2159 464.385 28.9242 464.385 28.5455C464.385 28.2936 464.358 28.0791 464.304 27.902C464.251 27.7249 464.175 27.59 464.074 27.4972C463.975 27.4044 463.855 27.358 463.715 27.358C463.505 27.358 463.34 27.4616 463.222 27.669C463.104 27.8755 463.044 28.1676 463.044 28.5455C463.044 28.7973 463.071 29.0114 463.124 29.1875C463.177 29.3636 463.253 29.4976 463.353 29.5895C463.453 29.6813 463.574 29.7273 463.715 29.7273Z" fill="black"/>
<path d="M511.227 27.0511C511.347 27.0521 511.466 27.0748 511.585 27.1193C511.705 27.1638 511.813 27.2377 511.912 27.3409C512.01 27.4432 512.089 27.5829 512.149 27.7599C512.209 27.937 512.239 28.1591 512.239 28.4261C512.239 28.6847 512.214 28.9143 512.165 29.1151C512.116 29.3149 512.046 29.4834 511.955 29.6207C511.864 29.758 511.753 29.8622 511.622 29.9332C511.492 30.0043 511.346 30.0398 511.182 30.0398C511.019 30.0398 510.874 30.0076 510.746 29.9432C510.619 29.8778 510.515 29.7874 510.433 29.6719C510.353 29.5554 510.301 29.4205 510.278 29.267H510.625C510.656 29.4006 510.718 29.5109 510.811 29.598C510.905 29.6842 511.028 29.7273 511.182 29.7273C511.406 29.7273 511.583 29.6293 511.713 29.4332C511.844 29.2372 511.909 28.9602 511.909 28.6023H511.886C511.833 28.6818 511.77 28.7505 511.697 28.8082C511.625 28.866 511.544 28.9105 511.455 28.9418C511.366 28.973 511.271 28.9886 511.17 28.9886C511.004 28.9886 510.851 28.9474 510.712 28.8651C510.573 28.7817 510.463 28.6676 510.379 28.5227C510.297 28.3769 510.256 28.2102 510.256 28.0227C510.256 27.8447 510.295 27.6818 510.375 27.5341C510.455 27.3854 510.568 27.267 510.713 27.179C510.859 27.0909 511.03 27.0483 511.227 27.0511ZM511.227 27.3636C511.108 27.3636 511 27.3935 510.905 27.4531C510.81 27.5118 510.735 27.5914 510.679 27.6918C510.624 27.7912 510.597 27.9015 510.597 28.0227C510.597 28.1439 510.623 28.2543 510.676 28.3537C510.73 28.4522 510.804 28.5308 510.896 28.5895C510.99 28.6473 511.097 28.6761 511.216 28.6761C511.306 28.6761 511.39 28.6586 511.467 28.6236C511.545 28.5876 511.613 28.5388 511.67 28.4773C511.729 28.4148 511.775 28.3442 511.808 28.2656C511.841 28.1861 511.858 28.1032 511.858 28.017C511.858 27.9034 511.83 27.7969 511.776 27.6974C511.722 27.598 511.647 27.5175 511.551 27.456C511.456 27.3944 511.348 27.3636 511.227 27.3636ZM513.746 30.0398C513.532 30.0398 513.35 29.9815 513.199 29.8651C513.049 29.7476 512.934 29.5777 512.854 29.3551C512.775 29.1316 512.735 28.8617 512.735 28.5455C512.735 28.2311 512.775 27.9626 512.854 27.7401C512.935 27.5166 513.05 27.3461 513.201 27.2287C513.352 27.1103 513.534 27.0511 513.746 27.0511C513.958 27.0511 514.14 27.1103 514.29 27.2287C514.442 27.3461 514.557 27.5166 514.637 27.7401C514.717 27.9626 514.757 28.2311 514.757 28.5455C514.757 28.8617 514.718 29.1316 514.638 29.3551C514.559 29.5777 514.444 29.7476 514.293 29.8651C514.142 29.9815 513.96 30.0398 513.746 30.0398ZM513.746 29.7273C513.958 29.7273 514.123 29.625 514.24 29.4205C514.358 29.2159 514.417 28.9242 514.417 28.5455C514.417 28.2936 514.39 28.0791 514.336 27.902C514.283 27.7249 514.206 27.59 514.105 27.4972C514.006 27.4044 513.886 27.358 513.746 27.358C513.536 27.358 513.372 27.4616 513.253 27.669C513.135 27.8755 513.076 28.1676 513.076 28.5455C513.076 28.7973 513.102 29.0114 513.155 29.1875C513.208 29.3636 513.284 29.4976 513.384 29.5895C513.484 29.6813 513.605 29.7273 513.746 29.7273Z" fill="black"/>
<path d="M560.324 27.0909V30H559.972V27.4602H559.955L559.244 27.9318V27.5739L559.972 27.0909H560.324ZM562.109 30.0398C561.895 30.0398 561.713 29.9815 561.562 29.8651C561.412 29.7476 561.297 29.5777 561.217 29.3551C561.138 29.1316 561.098 28.8617 561.098 28.5455C561.098 28.2311 561.138 27.9626 561.217 27.7401C561.298 27.5166 561.413 27.3461 561.564 27.2287C561.715 27.1103 561.897 27.0511 562.109 27.0511C562.321 27.0511 562.503 27.1103 562.653 27.2287C562.805 27.3461 562.92 27.5166 563 27.7401C563.08 27.9626 563.121 28.2311 563.121 28.5455C563.121 28.8617 563.081 29.1316 563.001 29.3551C562.922 29.5777 562.807 29.7476 562.656 29.8651C562.506 29.9815 562.323 30.0398 562.109 30.0398ZM562.109 29.7273C562.321 29.7273 562.486 29.625 562.604 29.4205C562.721 29.2159 562.78 28.9242 562.78 28.5455C562.78 28.2936 562.753 28.0791 562.699 27.902C562.646 27.7249 562.569 27.59 562.469 27.4972C562.369 27.4044 562.25 27.358 562.109 27.358C561.899 27.358 561.735 27.4616 561.616 27.669C561.498 27.8755 561.439 28.1676 561.439 28.5455C561.439 28.7973 561.465 29.0114 561.518 29.1875C561.571 29.3636 561.648 29.4976 561.747 29.5895C561.848 29.6813 561.968 29.7273 562.109 29.7273ZM564.609 30.0398C564.395 30.0398 564.213 29.9815 564.062 29.8651C563.912 29.7476 563.797 29.5777 563.717 29.3551C563.638 29.1316 563.598 28.8617 563.598 28.5455C563.598 28.2311 563.638 27.9626 563.717 27.7401C563.798 27.5166 563.913 27.3461 564.064 27.2287C564.215 27.1103 564.397 27.0511 564.609 27.0511C564.821 27.0511 565.003 27.1103 565.153 27.2287C565.305 27.3461 565.42 27.5166 565.5 27.7401C565.58 27.9626 565.621 28.2311 565.621 28.5455C565.621 28.8617 565.581 29.1316 565.501 29.3551C565.422 29.5777 565.307 29.7476 565.156 29.8651C565.006 29.9815 564.823 30.0398 564.609 30.0398ZM564.609 29.7273C564.821 29.7273 564.986 29.625 565.104 29.4205C565.221 29.2159 565.28 28.9242 565.28 28.5455C565.28 28.2936 565.253 28.0791 565.199 27.902C565.146 27.7249 565.069 27.59 564.969 27.4972C564.869 27.4044 564.75 27.358 564.609 27.358C564.399 27.358 564.235 27.4616 564.116 27.669C563.998 27.8755 563.939 28.1676 563.939 28.5455C563.939 28.7973 563.965 29.0114 564.018 29.1875C564.071 29.3636 564.148 29.4976 564.247 29.5895C564.348 29.6813 564.468 29.7273 564.609 29.7273Z" fill="black"/>
<path d="M610.324 27.0909V30H609.972V27.4602H609.955L609.244 27.9318V27.5739L609.972 27.0909H610.324ZM612.183 27.0909V30H611.831V27.4602H611.814L611.104 27.9318V27.5739L611.831 27.0909H612.183ZM613.969 30.0398C613.755 30.0398 613.572 29.9815 613.422 29.8651C613.271 29.7476 613.156 29.5777 613.077 29.3551C612.997 29.1316 612.957 28.8617 612.957 28.5455C612.957 28.2311 612.997 27.9626 613.077 27.7401C613.157 27.5166 613.273 27.3461 613.423 27.2287C613.575 27.1103 613.757 27.0511 613.969 27.0511C614.181 27.0511 614.362 27.1103 614.513 27.2287C614.664 27.3461 614.78 27.5166 614.859 27.7401C614.94 27.9626 614.98 28.2311 614.98 28.5455C614.98 28.8617 614.94 29.1316 614.861 29.3551C614.781 29.5777 614.666 29.7476 614.516 29.8651C614.365 29.9815 614.183 30.0398 613.969 30.0398ZM613.969 29.7273C614.181 29.7273 614.346 29.625 614.463 29.4205C614.58 29.2159 614.639 28.9242 614.639 28.5455C614.639 28.2936 614.612 28.0791 614.558 27.902C614.505 27.7249 614.429 27.59 614.328 27.4972C614.229 27.4044 614.109 27.358 613.969 27.358C613.759 27.358 613.594 27.4616 613.476 27.669C613.357 27.8755 613.298 28.1676 613.298 28.5455C613.298 28.7973 613.325 29.0114 613.378 29.1875C613.431 29.3636 613.507 29.4976 613.607 29.5895C613.707 29.6813 613.828 29.7273 613.969 29.7273Z" fill="black"/>
<path d="M660.324 27.0909V30H659.972V27.4602H659.955L659.244 27.9318V27.5739L659.972 27.0909H660.324ZM661.161 30V29.7443L662.121 28.6932C662.233 28.5701 662.326 28.4631 662.399 28.3722C662.472 28.2803 662.526 28.1941 662.561 28.1136C662.597 28.0322 662.615 27.947 662.615 27.858C662.615 27.7557 662.59 27.6671 662.541 27.5923C662.493 27.5175 662.427 27.4598 662.342 27.419C662.258 27.3783 662.163 27.358 662.058 27.358C661.946 27.358 661.849 27.3812 661.766 27.4276C661.683 27.473 661.619 27.5369 661.574 27.6193C661.529 27.7017 661.507 27.7983 661.507 27.9091H661.172C661.172 27.7386 661.211 27.589 661.29 27.4602C661.368 27.3314 661.475 27.2311 661.611 27.1591C661.747 27.0871 661.9 27.0511 662.07 27.0511C662.24 27.0511 662.391 27.0871 662.523 27.1591C662.654 27.2311 662.758 27.3281 662.832 27.4503C662.907 27.5724 662.945 27.7083 662.945 27.858C662.945 27.965 662.925 28.0696 662.886 28.1719C662.848 28.2732 662.782 28.3864 662.688 28.5114C662.594 28.6354 662.464 28.7869 662.297 28.9659L661.643 29.6648V29.6875H662.996V30H661.161ZM664.531 30.0398C664.317 30.0398 664.135 29.9815 663.984 29.8651C663.834 29.7476 663.719 29.5777 663.639 29.3551C663.56 29.1316 663.52 28.8617 663.52 28.5455C663.52 28.2311 663.56 27.9626 663.639 27.7401C663.72 27.5166 663.835 27.3461 663.986 27.2287C664.137 27.1103 664.319 27.0511 664.531 27.0511C664.743 27.0511 664.925 27.1103 665.075 27.2287C665.227 27.3461 665.342 27.5166 665.422 27.7401C665.502 27.9626 665.543 28.2311 665.543 28.5455C665.543 28.8617 665.503 29.1316 665.423 29.3551C665.344 29.5777 665.229 29.7476 665.078 29.8651C664.928 29.9815 664.745 30.0398 664.531 30.0398ZM664.531 29.7273C664.743 29.7273 664.908 29.625 665.026 29.4205C665.143 29.2159 665.202 28.9242 665.202 28.5455C665.202 28.2936 665.175 28.0791 665.121 27.902C665.068 27.7249 664.991 27.59 664.891 27.4972C664.791 27.4044 664.671 27.358 664.531 27.358C664.321 27.358 664.157 27.4616 664.038 27.669C663.92 27.8755 663.861 28.1676 663.861 28.5455C663.861 28.7973 663.887 29.0114 663.94 29.1875C663.993 29.3636 664.07 29.4976 664.169 29.5895C664.269 29.6813 664.39 29.7273 664.531 29.7273Z" fill="black"/>
<path d="M709.324 27.0909V30H708.972V27.4602H708.955L708.244 27.9318V27.5739L708.972 27.0909H709.324ZM711.143 30.0398C710.956 30.0398 710.789 30.0076 710.642 29.9432C710.496 29.8788 710.38 29.7893 710.294 29.6747C710.209 29.5592 710.162 29.4252 710.155 29.2727H710.513C710.52 29.3665 710.553 29.4474 710.609 29.5156C710.666 29.5829 710.741 29.6349 710.832 29.6719C710.924 29.7088 711.026 29.7273 711.138 29.7273C711.263 29.7273 711.374 29.7055 711.47 29.6619C711.567 29.6184 711.643 29.5578 711.697 29.4801C711.752 29.4025 711.78 29.3125 711.78 29.2102C711.78 29.1032 711.753 29.009 711.7 28.9276C711.647 28.8452 711.57 28.7808 711.467 28.7344C711.365 28.688 711.24 28.6648 711.092 28.6648H710.859V28.3523H711.092C711.208 28.3523 711.309 28.3314 711.396 28.2898C711.484 28.2481 711.553 28.1894 711.602 28.1136C711.652 28.0379 711.678 27.9489 711.678 27.8466C711.678 27.7481 711.656 27.6624 711.612 27.5895C711.569 27.5166 711.507 27.4598 711.428 27.419C711.349 27.3783 711.256 27.358 711.149 27.358C711.049 27.358 710.954 27.3764 710.865 27.4134C710.777 27.4493 710.705 27.5019 710.649 27.571C710.593 27.6392 710.563 27.7216 710.558 27.8182H710.217C710.223 27.6657 710.269 27.5322 710.355 27.4176C710.441 27.3021 710.554 27.2121 710.693 27.1477C710.833 27.0833 710.987 27.0511 711.155 27.0511C711.335 27.0511 711.489 27.0876 711.618 27.1605C711.747 27.2325 711.846 27.3277 711.915 27.446C711.984 27.5644 712.018 27.6922 712.018 27.8295C712.018 27.9934 711.975 28.133 711.889 28.2486C711.804 28.3641 711.688 28.4441 711.541 28.4886V28.5114C711.725 28.5417 711.868 28.6198 711.972 28.7457C712.075 28.8707 712.126 29.0256 712.126 29.2102C712.126 29.3684 712.083 29.5104 711.997 29.6364C711.912 29.7614 711.795 29.8598 711.648 29.9318C711.5 30.0038 711.332 30.0398 711.143 30.0398ZM713.656 30.0398C713.442 30.0398 713.26 29.9815 713.109 29.8651C712.959 29.7476 712.844 29.5777 712.764 29.3551C712.685 29.1316 712.645 28.8617 712.645 28.5455C712.645 28.2311 712.685 27.9626 712.764 27.7401C712.845 27.5166 712.96 27.3461 713.111 27.2287C713.262 27.1103 713.444 27.0511 713.656 27.0511C713.868 27.0511 714.05 27.1103 714.2 27.2287C714.352 27.3461 714.467 27.5166 714.547 27.7401C714.627 27.9626 714.668 28.2311 714.668 28.5455C714.668 28.8617 714.628 29.1316 714.548 29.3551C714.469 29.5777 714.354 29.7476 714.203 29.8651C714.053 29.9815 713.87 30.0398 713.656 30.0398ZM713.656 29.7273C713.868 29.7273 714.033 29.625 714.151 29.4205C714.268 29.2159 714.327 28.9242 714.327 28.5455C714.327 28.2936 714.3 28.0791 714.246 27.902C714.193 27.7249 714.116 27.59 714.016 27.4972C713.916 27.4044 713.796 27.358 713.656 27.358C713.446 27.358 713.282 27.4616 713.163 27.669C713.045 27.8755 712.986 28.1676 712.986 28.5455C712.986 28.7973 713.012 29.0114 713.065 29.1875C713.118 29.3636 713.195 29.4976 713.294 29.5895C713.394 29.6813 713.515 29.7273 713.656 29.7273Z" fill="black"/>
<rect x="585" y="32" width="4" height="2" fill="black"/>
<path d="M584.5 35C584.5 34.7239 584.724 34.5 585 34.5H589C589.276 34.5 589.5 34.7239 589.5 35V70C589.5 70.2761 589.276 70.5 589 70.5H585C584.724 70.5 584.5 70.2761 584.5 70V35Z" stroke="black"/>
<rect x="586" y="70" width="2" height="5" fill="black"/>
<rect x="583" y="75" width="8" height="3" fill="black"/>
<rect x="208" y="32" width="4" height="2" fill="black"/>
<path d="M207.5 35C207.5 34.7239 207.724 34.5 208 34.5H212C212.276 34.5 212.5 34.7239 212.5 35V69C212.5 69.2761 212.276 69.5 212 69.5H208C207.724 69.5 207.5 69.2761 207.5 69V35Z" stroke="black"/>
<rect x="209" y="70" width="2" height="5" fill="black"/>
<rect x="206" y="75" width="8" height="3" fill="black"/>
<rect x="0.5" y="13.5" width="4" height="21" stroke="black"/>
<rect x="5.5" y="0.5" width="4" height="15" rx="0.5" stroke="black"/>
<path d="M10 2H13V3H10V2Z" fill="#090909"/>
<rect x="13.5" y="1.5" width="5" height="2" rx="0.5" stroke="black"/>
</svg>
